<svg width="32" height="32" viewBox="0 0 32 32" fill="none" xmlns="http://www.w3.org/2000/svg">
  <!-- Circular background -->
  <circle cx="16" cy="16" r="16" fill="#2563eb"/>

  <!-- Dollar sign -->
  <path d="M16 6 L16 8" stroke="white" stroke-width="2" stroke-linecap="round"/>
  <path d="M16 24 L16 26" stroke="white" stroke-width="2" stroke-linecap="round"/>

  <!-- S shape for dollar -->
  <path d="M19 10 C19 8.895 18.105 8 17 8 L15 8 C13.895 8 13 8.895 13 10 C13 11.105 13.895 12 15 12 L17 12 C18.105 12 19 12.895 19 14 C19 15.105 18.105 16 17 16 L15 16 C13.895 16 13 15.105 13 14" stroke="white" stroke-width="2" stroke-linecap="round" fill="none"/>

  <!-- Fee chart bars -->
  <rect x="10" y="18" width="2" height="6" fill="white" opacity="0.7"/>
  <rect x="14" y="16" width="2" height="8" fill="white" opacity="0.85"/>
  <rect x="18" y="19" width="2" height="5" fill="white" opacity="0.7"/>
</svg>
